<?xml version="1.0" encoding="UTF-8" standalone="no"?>
<svg
   viewBox="0 0 128 128"
   version="1.1"
   id="svg2"
   sodipodi:docname="NixOS.svg"
   inkscape:version="1.3.2 (091e20ef0f, 2023-11-25)"
   xmlns:inkscape="http://www.inkscape.org/namespaces/inkscape"
   xmlns:sodipodi="http://sodipodi.sourceforge.net/DTD/sodipodi-0.dtd"
   xmlns="http://www.w3.org/2000/svg"
   xmlns:svg="http://www.w3.org/2000/svg">
  <defs
     id="defs2" />
  <sodipodi:namedview
     id="namedview2"
     pagecolor="#ffffff"
     bordercolor="#000000"
     borderopacity="0.25"
     inkscape:showpageshadow="2"
     inkscape:pageopacity="0.0"
     inkscape:pagecheckerboard="0"
     inkscape:deskcolor="#d1d1d1"
     inkscape:zoom="4.4636116"
     inkscape:cx="52.423917"
     inkscape:cy="74.155198"
     inkscape:window-width="1920"
     inkscape:window-height="1012"
     inkscape:window-x="1920"
     inkscape:window-y="0"
     inkscape:window-maximized="1"
     inkscape:current-layer="svg2" />
  <path
     fill="#7EBAE4"
     d="M50.732 43.771L20.525 96.428l-7.052-12.033 8.14-14.103-16.167-.042L2 64.237l3.519-6.15 23.013.073 8.27-14.352 13.93-.037zm2.318 42.094l60.409.003-6.827 12.164-16.205-.045 8.047 14.115-3.45 6.01-7.05.008-11.445-20.097-16.483-.034-6.996-12.124zm35.16-23.074l-30.202-52.66L71.888 10l8.063 14.148 8.12-14.072 6.897.002 3.532 6.143-11.57 20.024 8.213 14.386-6.933 12.16z"
     clip-rule="evenodd"
     fill-rule="evenodd"
     id="path1"
     style="fill:#e47e7e;fill-opacity:1" />
  <path
     fill="#5277C3"
     d="M39.831 65.463l30.202 52.66-13.88.131-8.063-14.148-8.12 14.072-6.897-.002-3.532-6.143 11.57-20.024-8.213-14.386 6.933-12.16zm35.08-23.207l-60.409-.003L21.33 30.09l16.204.045-8.047-14.115 3.45-6.01 7.051-.01 11.444 20.097 16.484.034 6.996 12.124zm2.357 42.216l30.207-52.658 7.052 12.034-8.141 14.102 16.168.043L126 64.006l-3.519 6.15-23.013-.073-8.27 14.352-13.93.037z"
     clip-rule="evenodd"
     fill-rule="evenodd"
     id="path2"
     style="fill:#c35252;fill-opacity:1" />
</svg>
